<?xml version="1.0" encoding="iso-8859-1"?>
<!-- Generator: Adobe Illustrator 16.0.0, SVG Export Plug-In . SVG Version: 6.00 Build 0)  -->
<!DOCTYPE svg PUBLIC "-//W3C//DTD SVG 1.1//EN" "http://www.w3.org/Graphics/SVG/1.1/DTD/svg11.dtd">
<svg version="1.1" id="Capa_1" xmlns="http://www.w3.org/2000/svg" xmlns:xlink="http://www.w3.org/1999/xlink" x="0px" y="0px"
	 width="94px" height="94px" viewBox="0 0 94 94" style="enable-background:new 0 0 94 94;" xml:space="preserve">
<g>
	<g>
		<path d="M47.296,12.386c-8.288,0-15.021,5.271-15.021,11.772c0,0.147,0.022,0.29,0.027,0.438c2.662-4.509,8.335-7.767,15.03-8.054
			c6.088-0.265,11.536,1.981,14.768,5.576C60.861,16.59,54.715,12.386,47.296,12.386z"/>
		<path d="M89,0H5C2.238,0,0,2.238,0,5v84c0,2.762,2.238,5,5,5h84c2.762,0,5-2.238,5-5V5C94,2.238,91.762,0,89,0z M46.989,54.197
			c-0.909,0-1.804-0.068-2.689-0.172c-2.485,5.676-11.948,26.918-16.388,31.545c-4.993,5.201,4.78-27.649,6.963-34.836
			C28.267,46.657,23.85,39.372,23.85,31.035c0-12.791,10.369-23.161,23.14-23.161c12.792,0,23.16,10.37,23.16,23.161
			C70.15,43.827,59.781,54.197,46.989,54.197z"/>
	</g>
</g>
<g>
</g>
<g>
</g>
<g>
</g>
<g>
</g>
<g>
</g>
<g>
</g>
<g>
</g>
<g>
</g>
<g>
</g>
<g>
</g>
<g>
</g>
<g>
</g>
<g>
</g>
<g>
</g>
<g>
</g>
</svg>
